<svg xmlns="http://www.w3.org/2000/svg" xmlns:xlink="http://www.w3.org/1999/xlink" width="1680" height="1230" viewBox="0 0 1680 1230" font-family="Helvetica Neue,Helvetica,Arial,sans-serif" role="img" aria-label="Use case B: a Private MCP Gateway calls on-premises MCP servers via VPN or Interconnect"><rect width="1680" height="1230" fill="#FFFFFF"/><defs><marker id="a-ink" viewBox="0 0 10 10" refX="9" refY="5" markerWidth="7" markerHeight="7" orient="auto-start-reverse"><path d="M0 0L10 5L0 10z" fill="#232F3E"/></marker><marker id="a-org" viewBox="0 0 10 10" refX="9" refY="5" markerWidth="7" markerHeight="7" orient="auto-start-reverse"><path d="M0 0L10 5L0 10z" fill="#FF4C00"/></marker><marker id="a-red" viewBox="0 0 10 10" refX="9" refY="5" markerWidth="7" markerHeight="7" orient="auto-start-reverse"><path d="M0 0L10 5L0 10z" fill="#DD344C"/></marker><symbol id="gn-ai" viewBox="0 0 20 20" fill="none">
  <path fill="#358DD5" d="M16.5,6.3c-0.5-1.2-1.6-2-2.9-2c-0.3-1.7-1.9-3-3.7-3c-1.8,0-3.3,1.3-3.7,3C5,4.1,3.7,5,3.3,6.3C2.1,6.6,1.2,7.7,1.2,9c0,1.5,1.2,2.8,2.8,2.8h12c1.5,0,2.8-1.2,2.8-2.8C18.8,7.7,17.8,6.6,16.5,6.3z M16,10.2H4c-0.7,0-1.2-0.6-1.2-1.2S3.3,7.7,4,7.7c0.3,0,0.7,0.1,0.9,0.4L6,9.2c0.3,0.3,0.8,0.3,1.1,0c0.3-0.3,0.3-0.8,0-1.1L5.9,7c-0.3-0.3-0.7-0.5-1-0.6C5.2,5.8,6,5.6,6.6,5.9c0.2,0.1,0.5,0.1,0.8,0c0.2-0.2,0.4-0.4,0.4-0.7c0-0.1,0-0.1,0-0.2c0-1.2,1-2.2,2.2-2.2s2.2,1,2.2,2.3c0,0.2,0.1,0.4,0.3,0.6c0.2,0.1,0.4,0.2,0.6,0.2c0.7-0.1,1.4,0.1,1.8,0.7c-0.3,0.1-0.6,0.3-0.8,0.5l-0.9,0.9h-0.7c-0.4,0-0.8,0.3-0.8,0.8c0,0.4,0.3,0.8,0.8,0.8h1c0.2,0,0.4-0.1,0.5-0.2l1.1-1.1c0.2-0.2,0.5-0.3,0.8-0.4c0,0,0,0,0,0c0.7,0,1.3,0.6,1.3,1.2S16.7,10.2,16,10.2z"></path>
  <path fill="#358DD5" d="M11.5,6.5L10.1,8l0.7,0.7V11c0,0.4-0.3,0.8-0.8,0.8S9.2,11.4,9.2,11V9.3L7.5,7.5c-0.3-0.3-0.3-0.8,0-1.1c0.3-0.3,0.8-0.3,1.1,0L9,6.9l1.5-1.5c0.3-0.3,0.8-0.3,1.1,0C11.8,5.8,11.8,6.2,11.5,6.5z"></path>
  <path fill="#358DD5" d="M10.8,11v3.4c-0.2-0.1-0.5-0.1-0.8-0.1s-0.5,0-0.8,0.1V11c0-0.4,0.3-0.8,0.8-0.8S10.8,10.6,10.8,11z"></path>
  <path fill="#358DD5" d="M14.5,13.5c-0.5,0.2-0.8,0.6-1.1,1.1l-1-1c-0.1-0.1-0.2-0.3-0.2-0.5v-2c0-0.4,0.3-0.8,0.8-0.8s0.8,0.3,0.8,0.8v1.7L14.5,13.5z"></path>
  <path fill="#358DD5" d="M7.8,11v2c0,0.2-0.1,0.4-0.2,0.5l-1,1c-0.2-0.5-0.6-0.8-1.1-1.1l0.8-0.8V11c0-0.4,0.3-0.8,0.8-0.8S7.8,10.6,7.8,11z"></path>
  <path fill="#FF5F4E" d="M10.8,14.4c-0.2-0.1-0.5-0.1-0.8-0.1s-0.5,0-0.8,0.1c-0.9,0.3-1.5,1.1-1.5,2.1c0,1.2,1,2.2,2.2,2.2s2.2-1,2.2-2.2C12.2,15.5,11.6,14.7,10.8,14.4z M10,17.2c-0.4,0-0.8-0.3-0.8-0.8c0-0.4,0.3-0.8,0.8-0.8s0.8,0.3,0.8,0.8C10.8,16.9,10.4,17.2,10,17.2z"></path>
  <path fill="#FF5F4E" d="M6.5,14.5c-0.2-0.5-0.6-0.8-1.1-1.1c-0.3-0.1-0.6-0.2-1-0.2c-1.2,0-2.2,1-2.2,2.2s1,2.2,2.2,2.2s2.2-1,2.2-2.2C6.8,15.1,6.7,14.8,6.5,14.5z M4.5,16.2c-0.4,0-0.8-0.3-0.8-0.8c0-0.4,0.3-0.8,0.8-0.8s0.8,0.3,0.8,0.8C5.2,15.9,4.9,16.2,4.5,16.2z"></path>
  <path fill="#FF5F4E" d="M15.5,13.2c-0.3,0-0.7,0.1-1,0.2c-0.5,0.2-0.8,0.6-1.1,1.1c-0.1,0.3-0.2,0.6-0.2,1c0,1.2,1,2.2,2.2,2.2s2.2-1,2.2-2.2S16.7,13.2,15.5,13.2z M15.5,16.2c-0.4,0-0.8-0.3-0.8-0.8c0-0.4,0.3-0.8,0.8-0.8s0.8,0.3,0.8,0.8C16.2,15.9,15.9,16.2,15.5,16.2z"></path>
</symbol><symbol id="gn-cr" viewBox="0 0 20 20" fill="none">
  <path fill="#00682E" d="M17.6,4.3L11,1.6c-0.7-0.3-1.3-0.3-2,0L2.4,4.3C1.7,4.6,1.2,5.3,1.2,6v10.6c0,1.2,0.9,2.1,2.1,2.1h13.6c1,0,1.8-0.8,1.8-1.8V6C18.8,5.3,18.3,4.6,17.6,4.3z M14.2,17.2H5.8V16c0-0.1,0.1-0.2,0.2-0.2h8c0.1,0,0.2,0.1,0.2,0.2V17.2z M17.2,16.9c0,0.2-0.1,0.3-0.3,0.3h-1.2V16c0-1-0.8-1.8-1.8-1.8H6c-1,0-1.8,0.8-1.8,1.8v1.2H3.3c-0.3,0-0.6-0.3-0.6-0.6V6c0-0.1,0.1-0.2,0.2-0.3L9.6,3C9.7,2.9,9.9,2.9,10,2.9c0.2,0,0.3,0,0.4,0.1l6.6,2.7c0.1,0.1,0.2,0.2,0.2,0.3V16.9z"></path>
  <path fill="#FF3D00" d="M13.2,9c0,0.4-0.3,0.8-0.8,0.8h-1.7c-0.4,0-0.8-0.3-0.8-0.8s0.3-0.8,0.8-0.8h1.7C12.9,8.2,13.2,8.6,13.2,9z"></path>
  <path fill="#00682E" d="M13.2,13c0,0.4-0.3,0.8-0.8,0.8h-1.7c-0.4,0-0.8-0.3-0.8-0.8s0.3-0.8,0.8-0.8h1.7C12.9,12.2,13.2,12.6,13.2,13z"></path>
  <path fill="#00682E" d="M15.8,8v1.5c0,0.4-0.3,0.8-0.8,0.8s-0.8-0.3-0.8-0.8V8c0-0.1-0.1-0.2-0.2-0.2H6C5.9,7.8,5.8,7.9,5.8,8v1.5c0,0.4-0.3,0.8-0.8,0.8S4.2,9.9,4.2,9.5V8C4.2,7,5,6.2,6,6.2h8C15,6.2,15.8,7,15.8,8z"></path>
  <path fill="#FF3D00" d="M15.8,12v1.5c0,0.4-0.3,0.8-0.8,0.8s-0.8-0.3-0.8-0.8V12c0-0.1-0.1-0.2-0.2-0.2H6c-0.1,0-0.2,0.1-0.2,0.2v1.5c0,0.4-0.3,0.8-0.8,0.8s-0.8-0.3-0.8-0.8V12c0-1,0.8-1.8,1.8-1.8h8C15,10.2,15.8,11,15.8,12z"></path>
</symbol><symbol id="gn-vnet" viewBox="0 0 20 20" fill="none">
  <path fill="#FF4C00" d="M17.5,7.7l-2.2,2.2c-0.2,0.2-0.5,0.2-0.7,0l-2.2-2.2c-0.3-0.3-0.1-0.8,0.4-0.8h1.4V6c0-0.1-0.1-0.2-0.2-0.2H9.4c0-0.2,0.1-0.5,0.1-0.8s0-0.5-0.1-0.8H14c1,0,1.8,0.8,1.8,1.8v0.9h1.4C17.6,6.9,17.8,7.4,17.5,7.7z"></path>
  <path fill="#00B795" d="M9.4,4.2C9.1,2.1,7.2,0.5,5,0.5c-2.5,0-4.5,2-4.5,4.5s2,4.5,4.5,4.5c2.2,0,4.1-1.6,4.4-3.8c0-0.2,0.1-0.5,0.1-0.8S9.5,4.5,9.4,4.2z M5,8C3.3,8,2,6.7,2,5s1.3-3,3-3s3,1.3,3,3S6.7,8,5,8z"></path>
  <path fill="#FF4C00" fill-rule="evenodd" clip-rule="evenodd" d="M10.5,15c0,0.3,0,0.5,0.1,0.8H6c-1,0-1.8-0.8-1.8-1.8v-0.9H2.8c-0.4,0-0.7-0.5-0.4-0.9l2.2-2.2c0.2-0.2,0.5-0.2,0.7,0l2.2,2.2c0.3,0.3,0.1,0.9-0.4,0.9H5.8V14c0,0.1,0.1,0.2,0.2,0.2h4.6C10.5,14.5,10.5,14.7,10.5,15z"></path>
  <path fill="#00B795" d="M15,10.5c-2.2,0-4.1,1.6-4.4,3.8c0,0.2-0.1,0.5-0.1,0.8s0,0.5,0.1,0.8c0.3,2.1,2.2,3.8,4.4,3.8c2.5,0,4.5-2,4.5-4.5S17.5,10.5,15,10.5z M15,18c-1.7,0-3-1.3-3-3s1.3-3,3-3s3,1.3,3,3S16.7,18,15,18z"></path>
</symbol><symbol id="mcp" viewBox="60 20 1800 1800" fill="none">
  <g stroke="#000000" stroke-width="128" stroke-linecap="round" stroke-linejoin="round">
    <path d="M193 910L920 183A258 258 0 0 1 1286 548L735 1097"/>
    <path d="M1103 365L565 903A258 258 0 0 0 930 1268L1467 729"/>
    <path d="M1286 548A258 258 0 0 1 1650 912L1015 1547Q980 1582 1015 1617L1130 1733"/>
  </g>
</symbol><symbol id="agent-runtime" viewBox="0 0 16 16" fill="none">
  <path fill="#FF4C00" d="M10,0.7H7.5c-3.2,0-5.8,2.6-5.8,5.8v4.7c0,0.4-0.1,0.8-0.3,1.2l-1.1,1.8c-0.1,0.2-0.1,0.5,0,0.8c0.1,0.2,0.4,0.4,0.7,0.4h9c3.2,0,5.8-2.6,5.8-5.8v-3C15.8,3.3,13.2,0.7,10,0.7z M14.2,9.5c0,2.3-1.9,4.2-4.2,4.2H2.3l0.4-0.6c0.3-0.6,0.5-1.2,0.5-1.9V6.5c0-2.3,1.9-4.2,4.2-4.2H10c2.3,0,4.2,1.9,4.2,4.2V9.5z"/>
  <path fill="#00B795" d="M11.2,8.7l-0.4,0.1C9.3,9,8.2,10.1,7.9,11.6L7.8,12l-0.1-0.4C7.5,10.1,6.3,9,4.9,8.7L4.5,8.7l0.4-0.1c1.5-0.3,2.6-1.4,2.9-2.9l0.1-0.4l0.1,0.4c0.3,1.5,1.4,2.6,2.9,2.9L11.2,8.7z"/>
  <path fill="#00B795" d="M12.5,5.6c-0.8,0.1-1.4,0.8-1.6,1.5c-0.1-0.8-0.8-1.4-1.5-1.5c0.8-0.1,1.4-0.8,1.5-1.6C11.1,4.8,11.7,5.4,12.5,5.6z"/>
</symbol><symbol id="policy" viewBox="0 0 20 20" fill="none">
  <!-- Policy: tài liệu rule (xanh) + khiên check (cam) — cùng style 2 màu với bộ icon GreenNode -->
  <path d="M11.5 16.25H4.25c-0.83 0-1.5-0.67-1.5-1.5V3.25c0-0.83 0.67-1.5 1.5-1.5h6.6l3.4 3.4v2.6" stroke="#00B795" stroke-width="1.5" stroke-linecap="round" stroke-linejoin="round"/>
  <path d="M10.75 1.9v2.85c0 0.41 0.34 0.75 0.75 0.75h2.75" stroke="#00B795" stroke-width="1.5" stroke-linecap="round" stroke-linejoin="round"/>
  <path d="M5.5 7.25h4.5M5.5 10.25h3.25M5.5 13.25h2.5" stroke="#00B795" stroke-width="1.5" stroke-linecap="round"/>
  <path d="M15 9.6l3.6 1.35v2.75c0 2.25-1.6 3.6-3.6 4.3c-2-0.7-3.6-2.05-3.6-4.3v-2.75z" fill="#FFFFFF" stroke="#FF4C00" stroke-width="1.5" stroke-linejoin="round"/>
  <path d="M13.5 14l1.05 1.05l2-2.1" stroke="#FF4C00" stroke-width="1.5" stroke-linecap="round" stroke-linejoin="round"/>
</symbol><symbol id="mcp-gateway" viewBox="0 0 16 16" fill="none">
  <path fill="#5B5AA8" d="M11,0.2H5C2.9,0.2,1.2,1.9,1.2,4v11c0,0.4,0.3,0.8,0.8,0.8h12c0.4,0,0.8-0.3,0.8-0.8V4C14.8,1.9,13.1,0.2,11,0.2z M13.2,14.2H2.8V4c0-1.2,1-2.2,2.2-2.2h6c1.2,0,2.2,1,2.2,2.2V14.2z"/>
  <path fill="#FF4C00" d="M11.5,9.2l-0.4,0.1c-1.7,0.3-3,1.6-3.3,3.3L7.8,13l-0.1-0.4c-0.3-1.7-1.6-3-3.3-3.3L4,9.2l0.4-0.1c1.7-0.3,3-1.6,3.3-3.3l0.1-0.4l0.1,0.4c0.3,1.7,1.6,3,3.3,3.3L11.5,9.2z"/>
  <path fill="#FF4C00" d="M12,5.2c-0.9,0.2-1.6,0.9-1.8,1.8c-0.2-0.9-0.9-1.6-1.8-1.8c0.9-0.2,1.6-0.9,1.8-1.8C10.4,4.4,11.1,5.1,12,5.2z"/>
</symbol><symbol id="inbound-auth" viewBox="0 0 20 20" fill="none">
  <!-- Inbound Auth: cửa sổ (xanh) + mũi tên đi vào + mắt xích xác thực (cam) — style 2 màu GreenNode -->
  <path d="M16.25 10.5V4.25c0-0.83-0.67-1.5-1.5-1.5H3.25c-0.83 0-1.5 0.67-1.5 1.5v10.5c0 0.83 0.67 1.5 1.5 1.5h7.25" stroke="#00B795" stroke-width="1.5" stroke-linecap="round" stroke-linejoin="round"/>
  <path d="M1.75 6.25h14.5" stroke="#00B795" stroke-width="1.5"/>
  <circle cx="11.6" cy="4.5" r="0.75" fill="#00B795"/><circle cx="13.3" cy="4.5" r="0.75" fill="#00B795"/><circle cx="15" cy="4.5" r="0.75" fill="#00B795"/>
  <path d="M4.5 11h5.25M7.75 8.75L10 11l-2.25 2.25" stroke="#FF4C00" stroke-width="1.5" stroke-linecap="round" stroke-linejoin="round"/>
  <g stroke="#FF4C00" stroke-width="1.5" stroke-linecap="round">
    <path d="M14.1 13.1l1.3-1.3a1.9 1.9 0 0 1 2.7 2.7l-1.3 1.3"/>
    <path d="M16.1 17.1l-1.3 1.3a1.9 1.9 0 0 1 -2.7-2.7l1.3-1.3"/>
    <path d="M14.2 16.3l2.1-2.1"/>
  </g>
</symbol></defs><g transform="translate(0 -110)"><rect x="20" y="130" width="1320" height="1170" fill="none" stroke="#232F3E" stroke-width="1.5"/><rect x="20" y="130" width="26" height="26" fill="#FFFFFF" stroke="#232F3E" stroke-width="1.5"/><circle cx="33" cy="143" r="7" fill="none" stroke="#0DB14B" stroke-width="3.2"/><circle cx="33" cy="143" r="2.6" fill="#333333"/><text x="54" y="148" font-size="12.5" font-weight="700" fill="#232F3E" text-anchor="start">GreenNode Cloud</text><rect x="34" y="166" width="1292" height="1120" fill="none" stroke="#00A4A6" stroke-width="1.5" stroke-dasharray="6 4"/><text x="42" y="184" font-size="12.5" font-weight="700" fill="#00A4A6" text-anchor="start">Region HCM</text><rect x="50" y="200" width="1260" height="560" fill="none" stroke="#0DB14B" stroke-width="1.5"/><rect x="50" y="200" width="26" height="26" fill="#FFFFFF" stroke="#0DB14B" stroke-width="1.5"/><circle cx="63" cy="213" r="7" fill="none" stroke="#0DB14B" stroke-width="3.2"/><circle cx="63" cy="213" r="2.6" fill="#333333"/><text x="84" y="218" font-size="12.5" font-weight="700" fill="#0A8F3C" text-anchor="start">AgentBase Platform — managed by GreenNode</text><rect x="85.75" y="245.75" width="56.5" height="56.5" rx="11" fill="#FFFFFF" stroke="#CFD6DD" stroke-width="1.5"/><use href="#gn-cr" xlink:href="#gn-cr" x="92" y="252" width="44" height="44"/><text x="114" y="314" font-size="12" font-weight="700" fill="#232F3E" text-anchor="middle">Container Registry</text><text x="114" y="329" font-size="10.5" font-weight="400" fill="#545B64" text-anchor="middle">vCR</text><rect x="180" y="236" width="460" height="130" fill="#FAFBFC" stroke="#7D8998" stroke-width="1.5" stroke-dasharray="4 3"/><text x="188" y="254" font-size="12.5" font-weight="700" fill="#545B64" text-anchor="start">Shared services · platform API</text><rect x="215.75" y="263.75" width="56.5" height="56.5" rx="11" fill="#FFFFFF" stroke="#CFD6DD" stroke-width="1.5"/><use href="#gn-ai" xlink:href="#gn-ai" x="222" y="270" width="44" height="44"/><text x="244" y="332" font-size="12" font-weight="700" fill="#232F3E" text-anchor="middle">LLM — AI Platform</text><text x="244" y="347" font-size="10.5" font-weight="400" fill="#545B64" text-anchor="middle">OpenAI-compatible API</text><rect x="355.75" y="263.75" width="56.5" height="56.5" rx="11" fill="#FFFFFF" stroke="#CFD6DD" stroke-width="1.5"/><g transform="translate(384 292) scale(1.375) translate(-384 -292)"><path d="M373 283a11 4.5 0 0 1 22 0v18a11 4.5 0 0 1 -22 0z" fill="none" stroke="#00B795" stroke-width="2" stroke-linecap="round" stroke-linejoin="round"/><path d="M373 283a11 4.5 0 0 0 22 0" fill="none" stroke="#00B795" stroke-width="2" stroke-linecap="round" stroke-linejoin="round"/><path d="M373 292a11 4.5 0 0 0 22 0" fill="none" stroke="#00B795" stroke-width="1.6" stroke-linecap="round" stroke-linejoin="round"/></g><text x="384" y="332" font-size="12" font-weight="700" fill="#232F3E" text-anchor="middle">Memory</text><text x="384" y="347" font-size="10.5" font-weight="400" fill="#545B64" text-anchor="middle">short-term + long-term</text><rect x="495.75" y="263.75" width="56.5" height="56.5" rx="11" fill="#FFFFFF" stroke="#CFD6DD" stroke-width="1.5"/><g transform="translate(524 292) scale(1.375) translate(-524 -292)"><circle cx="517" cy="292" r="6.5" fill="none" stroke="#00682E" stroke-width="2.2"/><path d="M523.5 292H537M532 292v5M536.5 292v4" fill="none" stroke="#00682E" stroke-width="2.2" stroke-linecap="round" stroke-linejoin="round"/></g><text x="524" y="332" font-size="12" font-weight="700" fill="#232F3E" text-anchor="middle">Access Control</text><text x="524" y="347" font-size="10.5" font-weight="400" fill="#545B64" text-anchor="middle">identity · credentials</text><rect x="70" y="400" width="1220" height="350" fill="none" stroke="#0DB14B" stroke-width="1.5" stroke-dasharray="7 4"/><rect x="70" y="400" width="26" height="26" fill="#FFFFFF" stroke="#0DB14B" stroke-width="1.5"/><use href="#gn-vnet" xlink:href="#gn-vnet" x="74" y="404" width="18" height="18"/><text x="104" y="418" font-size="12.5" font-weight="700" fill="#0A8F3C" text-anchor="start">AgentBase VPC · 172.30.0.0/16</text><rect x="395.75" y="515.75" width="56.5" height="56.5" rx="11" fill="#FFFFFF" stroke="#CFD6DD" stroke-width="1.5"/><use href="#agent-runtime" xlink:href="#agent-runtime" x="402" y="522" width="44" height="44"/><text x="424" y="584" font-size="12" font-weight="700" fill="#232F3E" text-anchor="middle">AgentBase Runtime</text><text x="424" y="599" font-size="10.5" font-weight="400" fill="#545B64" text-anchor="middle">sidecar LLM :18080</text><rect x="680" y="420" width="450" height="304" fill="#F8F7FC" stroke="#5B5AA8" stroke-width="1.5"/><rect x="680" y="420" width="26" height="26" fill="#FFFFFF" stroke="#5B5AA8" stroke-width="1.5"/><use href="#mcp-gateway" xlink:href="#mcp-gateway" x="684" y="424" width="18" height="18"/><text x="714" y="438" font-size="12.5" font-weight="700" fill="#5B5AA8" text-anchor="start">MCP Gateway</text><text x="1120" y="438" font-size="11" font-weight="700" fill="#232F3E" text-anchor="end">MCP Connectors</text><rect x="701.75" y="455.75" width="56.5" height="56.5" rx="11" fill="#FFFFFF" stroke="#CFD6DD" stroke-width="1.5"/><use href="#inbound-auth" xlink:href="#inbound-auth" x="708" y="462" width="44" height="44"/><text x="730" y="524" font-size="12" font-weight="700" fill="#232F3E" text-anchor="middle">Inbound Auth</text><text x="730" y="539" font-size="10.5" font-weight="400" fill="#545B64" text-anchor="middle">IAM Permissions</text><text x="730" y="553" font-size="10.5" font-weight="400" fill="#545B64" text-anchor="middle">JWT (default)</text><rect x="701.75" y="585.75" width="56.5" height="56.5" rx="11" fill="#FFFFFF" stroke="#CFD6DD" stroke-width="1.5"/><use href="#policy" xlink:href="#policy" x="708" y="592" width="44" height="44"/><text x="730" y="654" font-size="12" font-weight="700" fill="#232F3E" text-anchor="middle">Policy Group</text><text x="730" y="669" font-size="10.5" font-weight="400" fill="#545B64" text-anchor="middle">ALLOW / DENY</text><polyline points="730,558 730,585" fill="none" stroke="#232F3E" stroke-width="1.6" stroke-linejoin="round" marker-end="url(#a-ink)"/><text x="692" y="714" font-size="10.5" font-weight="600" fill="#5B5AA8" text-anchor="start">Network: Private → customer VPC</text><rect x="800" y="446" width="320" height="56" rx="4" fill="#FFFFFF" stroke="#9AA5B1" stroke-width="1.2"/><use href="#mcp" xlink:href="#mcp" x="809" y="456" width="36" height="36"/><text x="852" y="464" font-size="12" font-weight="700" fill="#232F3E" font-family="Menlo,Consolas,monospace">erp</text><text x="852" y="479" font-size="10.5" font-weight="400" fill="#545B64" text-anchor="start">URL: https://xx.xx.x.x:8443 · on-prem</text><text x="852" y="493" font-size="10.5" font-weight="400" fill="#545B64" text-anchor="start">Outbound: API Key · 2LO</text><rect x="800" y="508" width="320" height="56" rx="4" fill="#FFFFFF" stroke="#9AA5B1" stroke-width="1.2"/><use href="#mcp" xlink:href="#mcp" x="809" y="518" width="36" height="36"/><text x="852" y="526" font-size="12" font-weight="700" fill="#232F3E" font-family="Menlo,Consolas,monospace">hr</text><text x="852" y="541" font-size="10.5" font-weight="400" fill="#545B64" text-anchor="start">URL: https://xx.xx.x.x:8443 · on-prem</text><text x="852" y="555" font-size="10.5" font-weight="400" fill="#545B64" text-anchor="start">Outbound: OAuth · 2LO</text><polyline points="754,614 786,614" fill="none" stroke="#232F3E" stroke-width="1.6"/><polyline points="786,474 786,614" fill="none" stroke="#232F3E" stroke-width="1.6"/><polyline points="786,474 800,474" fill="none" stroke="#232F3E" stroke-width="1.6" stroke-linejoin="round" marker-end="url(#a-ink)"/><polyline points="786,536 800,536" fill="none" stroke="#232F3E" stroke-width="1.6" stroke-linejoin="round" marker-end="url(#a-ink)"/><rect x="50" y="830" width="1260" height="440" fill="none" stroke="#5B5AA8" stroke-width="1.5"/><rect x="50" y="830" width="26" height="26" fill="#FFFFFF" stroke="#5B5AA8" stroke-width="1.5"/><use href="#gn-vnet" xlink:href="#gn-vnet" x="54" y="834" width="18" height="18"/><text x="84" y="848" font-size="12.5" font-weight="700" fill="#5B5AA8" text-anchor="start">Customer VPC · xx.xx.x.x/xx</text><rect x="70" y="870" width="450" height="150" fill="#E6F6F7" stroke="none" stroke-width="1.5"/><rect x="70" y="870" width="26" height="26" fill="#00A4A6"/><rect x="78" y="882" width="10" height="8" rx="1.5" fill="#FFFFFF"/><path d="M80 882v-2.5a3 3 0 0 1 6 0v2.5" fill="none" stroke="#FFFFFF" stroke-width="1.8" stroke-linecap="round" stroke-linejoin="round"/><text x="104" y="888" font-size="12.5" font-weight="700" fill="#00A4A6" text-anchor="start">Private subnet · app</text><rect x="295.75" y="905.75" width="56.5" height="56.5" rx="11" fill="#FFFFFF" stroke="#CFD6DD" stroke-width="1.5"/><g transform="translate(324 934) scale(1.375) translate(-324 -934)"><path d="M310 923h28v22h-28z" fill="none" stroke="#358DD5" stroke-width="2" stroke-linecap="round" stroke-linejoin="round"/><path d="M310 929h28" fill="none" stroke="#358DD5" stroke-width="1.8" stroke-linecap="round" stroke-linejoin="round"/><circle cx="314" cy="926" r="1.2" fill="#358DD5"/><circle cx="318" cy="926" r="1.2" fill="#358DD5"/><circle cx="322" cy="926" r="1.2" fill="#358DD5"/><path d="M316 935h10M316 940h16" fill="none" stroke="#358DD5" stroke-width="1.6" stroke-linecap="round" stroke-linejoin="round"/></g><text x="324" y="974" font-size="12" font-weight="700" fill="#232F3E" text-anchor="middle">Internal app</text><text x="324" y="989" font-size="10.5" font-weight="400" fill="#545B64" text-anchor="middle">customer internal system</text><rect x="70" y="1050" width="450" height="91" rx="4" fill="#FFFFFF" stroke="#7D8998" stroke-width="1"/><rect x="70" y="1050" width="450" height="24" rx="4" fill="#F2F3F3"/><rect x="70" y="1070" width="450" height="4" fill="#F2F3F3"/><text x="80" y="1066" font-size="11" font-weight="700" fill="#232F3E" text-anchor="start">Route table (customer VPC)</text><text x="80" y="1092" font-size="10.5" fill="#232F3E" font-family="Menlo,Consolas,monospace">VPC CIDR</text><text x="510" y="1092" font-size="10.5" font-weight="600" fill="#545B64" text-anchor="end">local</text><text x="80" y="1109" font-size="10.5" fill="#232F3E" font-family="Menlo,Consolas,monospace">172.30.0.0/16</text><text x="510" y="1109" font-size="10.5" font-weight="600" fill="#545B64" text-anchor="end">→ AgentBase (private)</text><text x="80" y="1126" font-size="10.5" fill="#232F3E" font-family="Menlo,Consolas,monospace">on-prem CIDR</text><text x="510" y="1126" font-size="10.5" font-weight="600" fill="#545B64" text-anchor="end">→ VPN GW / Interconnect</text><rect x="1226.75" y="1125.75" width="56.5" height="56.5" rx="11" fill="#FFFFFF" stroke="#CFD6DD" stroke-width="1.5"/><use href="#gn-vnet" xlink:href="#gn-vnet" x="1233" y="1132" width="44" height="44"/><text x="1255" y="1194" font-size="12" font-weight="700" fill="#232F3E" text-anchor="middle">VPN GW</text><text x="1255" y="1209" font-size="10.5" font-weight="400" fill="#545B64" text-anchor="middle">/ Interconnect</text><rect x="1370" y="830" width="290" height="440" fill="none" stroke="#7D8998" stroke-width="1.5"/><rect x="1370" y="830" width="26" height="26" fill="#7D8998"/><g transform="translate(1370 830) scale(0.5417)"><path d="M14 36V13h13v23M27 20h8v16M11 36h27" fill="none" stroke="#FFFFFF" stroke-width="2" stroke-linecap="round" stroke-linejoin="round"/><path d="M18 18h5M18 23h5M18 28h5" fill="none" stroke="#FFFFFF" stroke-width="1.6" stroke-linecap="round" stroke-linejoin="round"/></g><text x="1404" y="848" font-size="12.5" font-weight="700" fill="#232F3E" text-anchor="start">On-premise · xx.xx.x.x/xx</text><rect x="1385.75" y="1125.75" width="56.5" height="56.5" rx="11" fill="#FFFFFF" stroke="#CFD6DD" stroke-width="1.5"/><g transform="translate(1414 1154) scale(1.375) translate(-1414 -1154)"><path d="M1401 1143h26v22h-26z" fill="none" stroke="#7D8998" stroke-width="2" stroke-linecap="round" stroke-linejoin="round"/><path d="M1401 1150.3h26M1401 1157.6h26" fill="none" stroke="#7D8998" stroke-width="1.6" stroke-linecap="round" stroke-linejoin="round"/><path d="M1410 1143v7.3M1419 1143v7.3M1406 1150.3v7.3M1414 1150.3v7.3M1422 1150.3v7.3M1410 1157.6v7.4M1419 1157.6v7.4" fill="none" stroke="#7D8998" stroke-width="1.6" stroke-linecap="round" stroke-linejoin="round"/></g><text x="1414" y="1194" font-size="12" font-weight="700" fill="#232F3E" text-anchor="middle">Firewall</text><text x="1414" y="1209" font-size="10.5" font-weight="400" fill="#545B64" text-anchor="middle">allow 172.30.0.0/16</text><rect x="1565.75" y="1015.75" width="56.5" height="56.5" rx="11" fill="#FFFFFF" stroke="#CFD6DD" stroke-width="1.5"/><use href="#mcp" xlink:href="#mcp" x="1572" y="1022" width="44" height="44"/><text x="1594" y="1084" font-size="12" font-weight="700" fill="#232F3E" text-anchor="middle">mcp-erp</text><text x="1594" y="1099" font-size="10.5" font-weight="400" fill="#545B64" text-anchor="middle">xx.xx.x.x</text><rect x="1565.75" y="1165.75" width="56.5" height="56.5" rx="11" fill="#FFFFFF" stroke="#CFD6DD" stroke-width="1.5"/><use href="#mcp" xlink:href="#mcp" x="1572" y="1172" width="44" height="44"/><text x="1594" y="1234" font-size="12" font-weight="700" fill="#232F3E" text-anchor="middle">mcp-hr</text><text x="1594" y="1249" font-size="10.5" font-weight="400" fill="#545B64" text-anchor="middle">xx.xx.x.x</text><polyline points="324,905 324,544 395,544" fill="none" stroke="#232F3E" stroke-width="1.6" stroke-linejoin="round" marker-end="url(#a-ink)"/><text x="334" y="700" font-size="10.5" font-weight="600" fill="#232F3E" text-anchor="start" style="paint-order:stroke;stroke:#FFFFFF;stroke-width:4px;stroke-linejoin:round">invoke</text><text x="334" y="713" font-size="10.5" font-weight="600" fill="#232F3E" text-anchor="start" style="paint-order:stroke;stroke:#FFFFFF;stroke-width:4px;stroke-linejoin:round">(private)</text><polyline points="114,345 114,388 412,388 412,515" fill="none" stroke="#232F3E" stroke-width="1.6" stroke-linejoin="round" marker-end="url(#a-ink)"/><text x="240" y="380" font-size="10.5" font-weight="600" fill="#232F3E" text-anchor="middle" style="paint-order:stroke;stroke:#FFFFFF;stroke-width:4px;stroke-linejoin:round">pull image</text><polyline points="436,515 436,370" fill="none" stroke="#232F3E" stroke-width="1.6" stroke-linejoin="round" marker-end="url(#a-ink)"/><text x="446" y="440" font-size="10.5" font-weight="600" fill="#232F3E" text-anchor="start" style="paint-order:stroke;stroke:#FFFFFF;stroke-width:4px;stroke-linejoin:round">LLM via sidecar :18080</text><text x="446" y="453" font-size="10.5" font-weight="600" fill="#232F3E" text-anchor="start" style="paint-order:stroke;stroke:#FFFFFF;stroke-width:4px;stroke-linejoin:round">Memory · Access Control</text><polyline points="453,544 660,544 660,484 701,484" fill="none" stroke="#232F3E" stroke-width="1.6" stroke-linejoin="round" marker-end="url(#a-ink)"/><text x="554" y="536" font-size="10.5" font-weight="600" fill="#232F3E" text-anchor="middle" style="paint-order:stroke;stroke:#FFFFFF;stroke-width:4px;stroke-linejoin:round">MCP tools/call</text><polyline points="1120,474 1265,474 1265,1125" fill="none" stroke="#232F3E" stroke-width="1.6" stroke-linejoin="round" marker-end="url(#a-ink)"/><polyline points="1120,536 1245,536 1245,1125" fill="none" stroke="#232F3E" stroke-width="1.6" stroke-linejoin="round" marker-end="url(#a-ink)"/><polyline points="1284,1146 1385,1146" fill="none" stroke="#FF4C00" stroke-width="3.2" stroke-linejoin="round" marker-end="url(#a-org)" marker-start="url(#a-org)"/><polyline points="1284,1162 1385,1162" fill="none" stroke="#DD344C" stroke-width="2" stroke-linejoin="round" stroke-dasharray="7 4" marker-end="url(#a-red)" marker-start="url(#a-red)"/><polyline points="1443,1146 1510,1146 1510,1044 1565,1044" fill="none" stroke="#232F3E" stroke-width="1.6" stroke-linejoin="round" marker-end="url(#a-ink)"/><polyline points="1443,1162 1510,1162 1510,1194 1565,1194" fill="none" stroke="#232F3E" stroke-width="1.6" stroke-linejoin="round" marker-end="url(#a-ink)"/><circle cx="324" cy="650" r="10" fill="#232F3E" stroke="#FFFFFF" stroke-width="2"/><text x="324" y="654" font-size="11" font-weight="700" fill="#FFFFFF" text-anchor="middle">1</text><circle cx="114" cy="366" r="10" fill="#232F3E" stroke="#FFFFFF" stroke-width="2"/><text x="114" y="370" font-size="11" font-weight="700" fill="#FFFFFF" text-anchor="middle">2</text><circle cx="436" cy="500" r="10" fill="#232F3E" stroke="#FFFFFF" stroke-width="2"/><text x="436" y="504" font-size="11" font-weight="700" fill="#FFFFFF" text-anchor="middle">3</text><circle cx="660" cy="520" r="10" fill="#232F3E" stroke="#FFFFFF" stroke-width="2"/><text x="660" y="524" font-size="11" font-weight="700" fill="#FFFFFF" text-anchor="middle">4</text><circle cx="1265" cy="1060" r="10" fill="#232F3E" stroke="#FFFFFF" stroke-width="2"/><text x="1265" y="1064" font-size="11" font-weight="700" fill="#FFFFFF" text-anchor="middle">5</text></g><line x1="30" y1="1214" x2="64" y2="1214" stroke="#232F3E" stroke-width="1.6"/><text x="72" y="1218" font-size="10.5" font-weight="400" fill="#545B64" text-anchor="start">request / data path</text><line x1="206" y1="1214" x2="240" y2="1214" stroke="#FF4C00" stroke-width="3.2"/><text x="248" y="1218" font-size="10.5" font-weight="400" fill="#545B64" text-anchor="start">Interconnect / leased line</text><line x1="421" y1="1214" x2="455" y2="1214" stroke="#DD344C" stroke-width="2" stroke-dasharray="7 4"/><text x="463" y="1218" font-size="10.5" font-weight="400" fill="#545B64" text-anchor="start">Site-to-Site VPN (IPsec)</text></svg>